<svg width="288" height="336" viewBox="0 0 288 336" xmlns="http://www.w3.org/2000/svg">
  <defs>
    <!-- Luxurious Gold Gradient -->
    <linearGradient id="luxuryGold" x1="0%" y1="0%" x2="100%" y2="100%">
      <stop offset="0%" stop-color="#ffecb3"/>
      <stop offset="30%" stop-color="#f7d96e"/>
      <stop offset="50%" stop-color="#e6c35a"/>
      <stop offset="70%" stop-color="#c59b3a"/>
      <stop offset="100%" stop-color="#a67c00"/>
    </linearGradient>

    <!-- Background Gradient with Velvet Texture -->
    <radialGradient id="luxuryVelvet" cx="50%" cy="50%" r="80%">
      <stop offset="0%" stop-color="#4b2e5c"/>
      <stop offset="50%" stop-color="#3a1f47"/>
      <stop offset="100%" stop-color="#2a1233"/>
    </radialGradient>

    <!-- Subtle Bevel Shine -->
    <linearGradient id="luxuryShine" x1="0" y1="0" x2="1" y2="1" gradientTransform="rotate(45)">
      <stop offset="0%" stop-color="#ffffff" stop-opacity="0.2"/>
      <stop offset="40%" stop-color="#ffffff" stop-opacity="0.1"/>
      <stop offset="100%" stop-color="#000000" stop-opacity="0.2"/>
    </linearGradient>

    <!-- Enhanced Drop Shadow -->
    <filter id="luxuryShadow" x="-50%" y="-50%" width="200%" height="200%">
      <feOffset result="offOut" in="SourceAlpha" dx="8" dy="12" />
      <feGaussianBlur result="blurOut" in="offOut" stdDeviation="6" />
      <feBlend in="SourceGraphic" in2="blurOut" mode="normal" />
    </filter>

    <!-- Dotted Pattern for Texture -->
    <pattern id="luxuryDots" patternUnits="userSpaceOnUse" width="10" height="10" patternTransform="rotate(45)">
      <circle cx="2" cy="2" r="0.8" fill="#5a3d6b" opacity="0.8"/>
    </pattern>

    <!-- Octagram Facet Pattern -->
    <pattern id="luxuryFacets" patternUnits="userSpaceOnUse" width="20" height="20">
      <path d="M0,0 L20,0 L10,20 Z" fill="#000000" opacity="0.05"/>
      <path d="M20,0 L20,20 L10,10 Z" fill="#000000" opacity="0.05"/>
    </pattern>
  </defs>

  <!-- Background with Velvet Texture -->
  <rect width="288" height="336" rx="40" ry="40" fill="url(#luxuryVelvet)"/>
  <rect width="288" height="336" rx="40" ry="40" fill="url(#luxuryDots)"/>

  <!-- Button Border with Gold and Shine -->
  <rect width="288" height="336" rx="40" ry="40"
        fill="none" stroke="url(#luxuryGold)" stroke-width="4"/>
  <rect width="288" height="336" rx="40" ry="40" fill="url(#luxuryShine)"/>

  <!-- 3D Octagram (Eight-pointed Star) -->
  <g transform="translate(144,168) scale(1.5)">
    <!-- Shadow Layers for Depth -->
    <path d="M0,-80 L28,-28 L80,0 L28,28 L0,80 L-28,28 L-80,0 L-28,-28 Z" 
          fill="#2a1233" opacity="0.8" transform="translate(10,15)" />
    <path d="M0,-80 L28,-28 L80,0 L28,28 L0,80 L-28,28 L-80,0 L-28,-28 Z" 
          fill="#4b2e5c" opacity="0.9" transform="translate(5,8)" />
    
    <!-- Main Octagram with Luxury Gold -->
    <path d="M0,-80 L28,-28 L80,0 L28,28 L0,80 L-28,28 L-80,0 L-28,-28 Z" 
          fill="url(#luxuryGold)" filter="url(#luxuryShadow)" />
    
    <!-- Transparent Hole Inside -->
    <circle cx="0" cy="0" r="40" fill="transparent" stroke="none" />
    
    <!-- Enhanced Facet Texture -->
    <path d="M0,-80 L28,-28 L80,0 L28,28 L0,80 L-28,28 L-80,0 L-28,-28 Z" 
          fill="url(#luxuryFacets)" opacity="0.7"/>
    
    <!-- Thin Dark Bevel Lines -->
    <path d="M0,-80 L28,-28 L80,0 L28,28 L0,80 L-28,28 L-80,0 L-28,-28 Z" 
          fill="none" stroke="#000000" stroke-opacity="0.6" stroke-width="0.8"/>
  </g>
</svg>
